<svg width="850" height="939" viewBox="0 0 850 939" fill="none" xmlns="http://www.w3.org/2000/svg">
<path fill-rule="evenodd" clip-rule="evenodd" d="M750 589H770.289L850 668.711V939H750H550H520.711L450 868.289V659.843L520.843 589H550H750ZM750 689H550V839H750V689Z" fill="white"/>
<path fill-rule="evenodd" clip-rule="evenodd" d="M779.289 100H750H550V0H450V379.289L520.711 450H550H750V350H850V170.711L779.289 100ZM750 350V200H550V350H750Z" fill="white"/>
<path fill-rule="evenodd" clip-rule="evenodd" d="M0 489H100V589H300H329.289L400 659.711V839H300V689H100V839H300V939H100H70.7107L0 868.289V489Z" fill="white"/>
<path fill-rule="evenodd" clip-rule="evenodd" d="M100 100H0V379.289L70.7107 450H100H300H400V100H300V350H100V100Z" fill="white"/>
</svg>
